<svg width="569" height="273" viewBox="0 0 569 273" fill="none" xmlns="http://www.w3.org/2000/svg">
<g clip-path="url(#clip0_379_4519)">
<path d="M0 165.775L23.2661 84.5574H56.5228C79.8641 84.5574 90.2456 95.029 85.0135 113.296C81.1346 126.821 66.1976 141.386 42.5556 141.386H28.611L21.6198 165.782H0V165.775ZM48.7198 123.089C57.1919 123.089 62.5667 117.782 63.98 112.851C65.7015 106.827 62.0706 102.937 54.7187 102.937H39.6163L33.843 123.089H48.7123H48.7198Z" fill="#FF5D15"/>
<path d="M120.654 165.775L116.233 138.891H103.146L95.448 165.775H73.8281L97.0943 84.5574H130.351C154.376 84.5574 164.344 94.0866 159.18 112.105C156.489 121.506 148.881 129.791 138.77 134.375L144.348 165.782H120.654V165.775ZM123.225 120.714C130.832 120.714 136.545 117.246 138.146 111.667C139.755 106.043 136.35 102.945 128.547 102.945H113.444L108.355 120.722H123.225V120.714Z" fill="#FF5D15"/>
<path d="M184.288 167.825C160.119 167.825 150.249 151.918 157.887 125.267C165.517 98.6247 184.506 82.71 208.674 82.71C232.842 82.71 243.141 98.6172 235.503 125.267C227.873 151.91 208.726 167.825 184.288 167.825ZM203.306 102.183C192.707 102.183 182.228 111.893 178.402 125.267C174.387 139.29 178.973 148.352 190.083 148.352C201.194 148.352 210.974 139.29 214.988 125.267C218.822 111.893 213.906 102.183 203.306 102.183Z" fill="#FF5D15"/>
<path d="M244.749 165.774L262.618 103.374H240.577L245.967 84.5491H312.375L306.978 103.374H284.358L266.482 165.774H244.749Z" fill="#FF5D15"/>
<path d="M294.168 165.774L317.435 84.5491H339.175L315.909 165.774H294.168Z" fill="#FF5D15"/>
<path d="M503.947 165.775L527.213 84.5574H548.953L530.987 147.282H548.856C557.23 147.282 561.635 146.769 567.213 146.128L568.16 146.015L562.966 164.146L562.484 164.252C556.192 165.631 545.292 165.782 540.895 165.782H503.939L503.947 165.775Z" fill="#FF5D15"/>
<path d="M329.973 0.165857C329.123 0.0603117 328.289 0 327.492 0C327.41 0 326.891 0.0150779 326.891 0.0150779C316.254 0.339253 307.917 8.95629 307.917 19.6315C307.917 30.3066 316.246 38.9237 326.891 39.2478L327.327 39.278V39.2931C378.4 42.4293 418.347 85.0169 418.347 136.425C418.347 187.833 374.814 233.746 321.298 233.746C277.457 233.746 237.983 201.743 226.444 159.487C216.807 168.918 204.727 174.723 191.038 176.238C199.216 203.137 215.867 227.307 238.201 244.587C262.189 263.155 290.92 272.963 321.298 272.963C396.374 272.963 457.452 211.709 457.452 136.418C457.452 61.1259 401.47 4.68923 329.973 0.165857Z" fill="white"/>
<path d="M480.245 165.775L478.305 151.202H453.047L443.214 165.775H419.663L475.11 84.5574H494.062L503.917 165.775H480.252H480.245ZM477.659 132.807L477.516 110.589L464.233 132.807H477.659Z" fill="#FF5D15"/>
<path d="M395.051 165.774L409.041 115.376L379.595 165.774H359.065L358.494 115.368L343.61 165.774H321.261L349.909 84.5491H374.574L376.746 139.681L410.619 84.5491H435.284L417.4 165.774H395.051Z" fill="#FF5D15"/>
</g>
<defs>
<clipPath id="clip0_379_4519">
<rect width="568.16" height="272.971" fill="white"/>
</clipPath>
</defs>
</svg>
